<svg xmlns="http://www.w3.org/2000/svg" style="display:none;">
	<defs>
		<symbol id="social-google" fill="none" viewBox="0 0 24 24">
		    <g id="social-google">
				<path d="M21.8055 10.0415H21V10H12V14H17.6515C16.827 16.3285 14.6115 18 12 18C8.6865 18 6 15.3135 6 12C6 8.6865 8.6865 6 12 6C13.5295 6 14.921 6.577 15.9805 7.5195L18.809 4.691C17.023 3.0265 14.634 2 12 2C6.4775 2 2 6.4775 2 12C2 17.5225 6.4775 22 12 22C17.5225 22 22 17.5225 22 12C22 11.3295 21.931 10.675 21.8055 10.0415Z" fill="#FFC107"/>
				<path d="M3.15283 7.3455L6.43833 9.755C7.32733 7.554 9.48033 6 11.9998 6C13.5293 6 14.9208 6.577 15.9803 7.5195L18.8088 4.691C17.0228 3.0265 14.6338 2 11.9998 2C8.15883 2 4.82783 4.1685 3.15283 7.3455Z" fill="#FF3D00"/>
				<path d="M12.0002 22.0003C14.5832 22.0003 16.9302 21.0118 18.7047 19.4043L15.6097 16.7853C14.5721 17.5749 13.3039 18.0017 12.0002 18.0003C9.39916 18.0003 7.19066 16.3418 6.35866 14.0273L3.09766 16.5398C4.75266 19.7783 8.11366 22.0003 12.0002 22.0003Z" fill="#4CAF50"/>
				<path d="M21.8055 10.0415H21V10H12V14H17.6515C17.2571 15.1082 16.5467 16.0766 15.608 16.7855L15.6095 16.7845L18.7045 19.4035C18.4855 19.6025 22 17 22 12C22 11.3295 21.931 10.675 21.8055 10.0415Z" fill="#1976D2"/>
			</g>
		</symbol>
		<symbol id="social-apple" fill="none" viewBox="0 0 24 24">
			<g id="social-apple">
				<path d="M17.0499 20.28C16.0699 21.23 14.9999 21.08 13.9699 20.63C12.8799 20.17 11.8799 20.15 10.7299 20.63C9.28992 21.25 8.52992 21.07 7.66992 20.28C2.78992 15.25 3.50992 7.59 9.04992 7.31C10.3999 7.38 11.3399 8.05 12.1299 8.11C13.3099 7.87 14.4399 7.18 15.6999 7.27C17.2099 7.39 18.3499 7.99 19.0999 9.07C15.9799 10.94 16.7199 15.05 19.5799 16.2C19.0099 17.7 18.2699 19.19 17.0399 20.29L17.0499 20.28ZM12.0299 7.25C11.8799 5.02 13.6899 3.18 15.7699 3C16.0599 5.58 13.4299 7.5 12.0299 7.25Z" fill="black"/>
			</g>
		</symbol>
		<symbol id="social-microsoft" fill="none" viewBox="0 0 24 24">
			<g id="social-microsoft">
				<path d="M11.5049 11.5049H2V2H11.5049V11.5049Z" fill="#F1511B"/>
				<path d="M21.9994 11.5049H12.4946V2H21.9994V11.5049Z" fill="#80CC28"/>
				<path d="M11.5046 22H2V12.4951H11.5046V22Z" fill="#00ADEF"/>
				<path d="M21.9994 22H12.4946V12.4951H21.9994V22Z" fill="#FBBC09"/>
			</g>
		</symbol>
		<symbol id="eye" fill="none" viewBox="0 0 24 24">
			<g id="eye">
				<path d="M3.27489 15.2957C2.42496 14.1915 2 13.6394 2 12C2 10.3606 2.42496 9.80853 3.27489 8.70433C4.97196 6.49956 7.81811 4 12 4C16.1819 4 19.028 6.49956 20.7251 8.70433C21.575 9.80853 22 10.3606 22 12C22 13.6394 21.575 14.1915 20.7251 15.2957C19.028 17.5004 16.1819 20 12 20C7.81811 20 4.97196 17.5004 3.27489 15.2957Z" stroke="currentColor" stroke-width="1.5"/>
				<path d="M15 12C15 13.6569 13.6569 15 12 15C10.3431 15 9 13.6569 9 12C9 10.3431 10.3431 9 12 9C13.6569 9 15 10.3431 15 12Z" stroke="currentColor" stroke-width="1.5"/>
			</g>
		</symbol>
		<symbol id="eye-closed" fill="none" viewBox="0 0 24 24">
			<g id="eye-closed">
				<path d="M2.68936 6.70456C2.52619 6.32384 2.08528 6.14747 1.70456 6.31064C1.32384 6.47381 1.14747 6.91472 1.31064 7.29544L2.68936 6.70456ZM15.5872 13.3287L15.3125 12.6308L15.5872 13.3287ZM9.04145 13.7377C9.26736 13.3906 9.16904 12.926 8.82185 12.7001C8.47466 12.4742 8.01008 12.5725 7.78417 12.9197L9.04145 13.7377ZM6.37136 15.091C6.14545 15.4381 6.24377 15.9027 6.59096 16.1286C6.93815 16.3545 7.40273 16.2562 7.62864 15.909L6.37136 15.091ZM22.6894 7.29544C22.8525 6.91472 22.6762 6.47381 22.2954 6.31064C21.9147 6.14747 21.4738 6.32384 21.3106 6.70456L22.6894 7.29544ZM19 11.1288L18.4867 10.582V10.582L19 11.1288ZM19.9697 13.1592C20.2626 13.4521 20.7374 13.4521 21.0303 13.1592C21.3232 12.8663 21.3232 12.3914 21.0303 12.0985L19.9697 13.1592ZM11.25 16.5C11.25 16.9142 11.5858 17.25 12 17.25C12.4142 17.25 12.75 16.9142 12.75 16.5H11.25ZM16.3714 15.909C16.5973 16.2562 17.0619 16.3545 17.409 16.1286C17.7562 15.9027 17.8545 15.4381 17.6286 15.091L16.3714 15.909ZM5.53033 11.6592C5.82322 11.3663 5.82322 10.8914 5.53033 10.5985C5.23744 10.3056 4.76256 10.3056 4.46967 10.5985L5.53033 11.6592ZM2.96967 12.0985C2.67678 12.3914 2.67678 12.8663 2.96967 13.1592C3.26256 13.4521 3.73744 13.4521 4.03033 13.1592L2.96967 12.0985ZM12 13.25C8.77611 13.25 6.46133 11.6446 4.9246 9.98966C4.15645 9.16243 3.59325 8.33284 3.22259 7.71014C3.03769 7.3995 2.90187 7.14232 2.8134 6.96537C2.76919 6.87696 2.73689 6.80875 2.71627 6.76411C2.70597 6.7418 2.69859 6.7254 2.69411 6.71533C2.69187 6.7103 2.69036 6.70684 2.68957 6.70503C2.68917 6.70413 2.68896 6.70363 2.68892 6.70355C2.68891 6.70351 2.68893 6.70357 2.68901 6.70374C2.68904 6.70382 2.68913 6.70403 2.68915 6.70407C2.68925 6.7043 2.68936 6.70456 2 7C1.31064 7.29544 1.31077 7.29575 1.31092 7.29609C1.31098 7.29624 1.31114 7.2966 1.31127 7.2969C1.31152 7.29749 1.31183 7.2982 1.31218 7.299C1.31287 7.30062 1.31376 7.30266 1.31483 7.30512C1.31698 7.31003 1.31988 7.31662 1.32353 7.32483C1.33083 7.34125 1.34115 7.36415 1.35453 7.39311C1.38127 7.45102 1.42026 7.5332 1.47176 7.63619C1.57469 7.84206 1.72794 8.13175 1.93366 8.47736C2.34425 9.16716 2.96855 10.0876 3.8254 11.0103C5.53867 12.8554 8.22389 14.75 12 14.75V13.25ZM15.3125 12.6308C14.3421 13.0128 13.2417 13.25 12 13.25V14.75C13.4382 14.75 14.7246 14.4742 15.8619 14.0266L15.3125 12.6308ZM7.78417 12.9197L6.37136 15.091L7.62864 15.909L9.04145 13.7377L7.78417 12.9197ZM22 7C21.3106 6.70456 21.3107 6.70441 21.3108 6.70427C21.3108 6.70423 21.3108 6.7041 21.3109 6.70402C21.3109 6.70388 21.311 6.70376 21.311 6.70368C21.3111 6.70352 21.3111 6.70349 21.3111 6.7036C21.311 6.7038 21.3107 6.70452 21.3101 6.70576C21.309 6.70823 21.307 6.71275 21.3041 6.71924C21.2983 6.73223 21.2889 6.75309 21.2758 6.78125C21.2495 6.83757 21.2086 6.92295 21.1526 7.03267C21.0406 7.25227 20.869 7.56831 20.6354 7.9432C20.1669 8.69516 19.4563 9.67197 18.4867 10.582L19.5133 11.6757C20.6023 10.6535 21.3917 9.56587 21.9085 8.73646C22.1676 8.32068 22.36 7.9668 22.4889 7.71415C22.5533 7.58775 22.602 7.48643 22.6353 7.41507C22.6519 7.37939 22.6647 7.35118 22.6737 7.33104C22.6782 7.32097 22.6818 7.31292 22.6844 7.30696C22.6857 7.30398 22.6867 7.30153 22.6876 7.2996C22.688 7.29864 22.6883 7.29781 22.6886 7.29712C22.6888 7.29677 22.6889 7.29646 22.689 7.29618C22.6891 7.29604 22.6892 7.29585 22.6892 7.29578C22.6893 7.29561 22.6894 7.29544 22 7ZM18.4867 10.582C17.6277 11.3882 16.5739 12.1343 15.3125 12.6308L15.8619 14.0266C17.3355 13.4466 18.5466 12.583 19.5133 11.6757L18.4867 10.582ZM18.4697 11.6592L19.9697 13.1592L21.0303 12.0985L19.5303 10.5985L18.4697 11.6592ZM11.25 14V16.5H12.75V14H11.25ZM14.9586 13.7377L16.3714 15.909L17.6286 15.091L16.2158 12.9197L14.9586 13.7377ZM4.46967 10.5985L2.96967 12.0985L4.03033 13.1592L5.53033 11.6592L4.46967 10.5985Z" fill="currentColor"/>
			</g>
		</symbol>
		<symbol id="info-circle" fill="none" viewBox="0 0 24 24">
			<g id="info-circle">
				<circle cx="12" cy="12" r="10" stroke="currentColor" stroke-width="1.5"/>
				<path d="M12 17V11" stroke="currentColor" stroke-width="1.5" stroke-linecap="round"/>
				<circle cx="1" cy="1" r="1" transform="matrix(1 0 0 -1 11 9)" fill="currentColor"/>
			</g>
		</symbol>
		<symbol id="lock" fill="none" viewBox="0 0 24 24">
			<g id="lock">
				<path d="M2 16C2 13.1716 2 11.7574 2.87868 10.8787C3.75736 10 5.17157 10 8 10H16C18.8284 10 20.2426 10 21.1213 10.8787C22 11.7574 22 13.1716 22 16C22 18.8284 22 20.2426 21.1213 21.1213C20.2426 22 18.8284 22 16 22H8C5.17157 22 3.75736 22 2.87868 21.1213C2 20.2426 2 18.8284 2 16Z" stroke="currentColor" stroke-width="1.5"/>
				<path d="M6 10V8C6 4.68629 8.68629 2 12 2C15.3137 2 18 4.68629 18 8V10" stroke="currentColor" stroke-width="1.5" stroke-linecap="round"/>
			</g>
		</symbol>
		<symbol id="arrow-right" fill="none" viewBox="0 0 24 24">
			<g id="arrow-right">
				<path d="M4 12H20M20 12L14 6M20 12L14 18" stroke="currentColor" stroke-width="1.5" stroke-linecap="round" stroke-linejoin="round"/>
			</g>
		</symbol>
		<symbol id="arrow-left" fill="none" viewBox="0 0 24 24">
			<g id="arrow-left">
				<path d="M20 12H4M4 12L10 6M4 12L10 18" stroke="currentColor" stroke-width="1.5" stroke-linecap="round" stroke-linejoin="round"/>
			</g>
		</symbol>
		<symbol id="alt-right-down" fill="none" viewBox="0 0 24 24">
			<g id="alt-right-down">
				<path d="M19 9L12 15L5 9" stroke="currentColor" stroke-width="1.5" stroke-linecap="round" stroke-linejoin="round"/>
			</g>
		</symbol>
		<symbol id="square-top-down" fill="none" viewBox="0 0 24 24">
			<g id="square-top-down">
				<path d="M13 11L22 2M22 2H16.6562M22 2V7.34375" stroke="currentColor" stroke-width="1.5" stroke-linecap="round" stroke-linejoin="round"/>
				<path d="M22 12C22 16.714 22 19.0711 20.5355 20.5355C19.0711 22 16.714 22 12 22C7.28595 22 4.92893 22 3.46447 20.5355C2 19.0711 2 16.714 2 12C2 7.28595 2 4.92893 3.46447 3.46447C4.92893 2 7.28595 2 12 2" stroke="currentColor" stroke-width="1.5" stroke-linecap="round"/>
			</g>
		</symbol>
		<symbol id="bold-users-group-rounded" fill="none" viewBox="0 0 24 24">
			<g id="bold-users-group-rounded">
				<path d="M15.5 7.5C15.5 9.433 13.933 11 12 11C10.067 11 8.5 9.433 8.5 7.5C8.5 5.567 10.067 4 12 4C13.933 4 15.5 5.567 15.5 7.5Z" fill="currentColor"/>
				<path d="M18 16.5C18 18.433 15.3137 20 12 20C8.68629 20 6 18.433 6 16.5C6 14.567 8.68629 13 12 13C15.3137 13 18 14.567 18 16.5Z" fill="currentColor"/>
				<path d="M7.12205 5C7.29951 5 7.47276 5.01741 7.64005 5.05056C7.23249 5.77446 7 6.61008 7 7.5C7 8.36825 7.22131 9.18482 7.61059 9.89636C7.45245 9.92583 7.28912 9.94126 7.12205 9.94126C5.70763 9.94126 4.56102 8.83512 4.56102 7.47063C4.56102 6.10614 5.70763 5 7.12205 5Z" fill="currentColor"/>
				<path d="M5.44734 18.986C4.87942 18.3071 4.5 17.474 4.5 16.5C4.5 15.5558 4.85657 14.744 5.39578 14.0767C3.4911 14.2245 2 15.2662 2 16.5294C2 17.8044 3.5173 18.8538 5.44734 18.986Z" fill="currentColor"/>
				<path d="M16.9999 7.5C16.9999 8.36825 16.7786 9.18482 16.3893 9.89636C16.5475 9.92583 16.7108 9.94126 16.8779 9.94126C18.2923 9.94126 19.4389 8.83512 19.4389 7.47063C19.4389 6.10614 18.2923 5 16.8779 5C16.7004 5 16.5272 5.01741 16.3599 5.05056C16.7674 5.77446 16.9999 6.61008 16.9999 7.5Z" fill="currentColor"/>
				<path d="M18.5526 18.986C20.4826 18.8538 21.9999 17.8044 21.9999 16.5294C21.9999 15.2662 20.5088 14.2245 18.6041 14.0767C19.1433 14.744 19.4999 15.5558 19.4999 16.5C19.4999 17.474 19.1205 18.3071 18.5526 18.986Z" fill="currentColor"/>
			</g>
		</symbol>
		<symbol id="loading" fill="none" viewBox="0 0 24 24">
			<g id="loading">
				<path d="M22 12C22 13.9778 21.4135 15.9112 20.3147 17.5557C19.2159 19.2002 17.6541 20.4819 15.8268 21.2388C13.9996 21.9957 11.9889 22.1937 10.0491 21.8079C8.10929 21.422 6.32746 20.4696 4.92893 19.0711C3.53041 17.6725 2.578 15.8907 2.19215 13.9509C1.80629 12.0111 2.00433 10.0004 2.7612 8.17317C3.51808 6.3459 4.79981 4.78412 6.4443 3.6853C8.08879 2.58649 10.0222 2 12 2" stroke="currentColor" stroke-width="1.5" stroke-linecap="round"/>
			</g>
		</symbol>
		<symbol id="home-smile" fill="none" viewBox="0 0 24 24">
			<g id="home-smile">
				<path d="M2 12.2039C2 9.91549 2 8.77128 2.5192 7.82274C3.0384 6.87421 3.98695 6.28551 5.88403 5.10813L7.88403 3.86687C9.88939 2.62229 10.8921 2 12 2C13.1079 2 14.1106 2.62229 16.116 3.86687L18.116 5.10812C20.0131 6.28551 20.9616 6.87421 21.4808 7.82274C22 8.77128 22 9.91549 22 12.2039V13.725C22 17.6258 22 19.5763 20.8284 20.7881C19.6569 22 17.7712 22 14 22H10C6.22876 22 4.34315 22 3.17157 20.7881C2 19.5763 2 17.6258 2 13.725V12.2039Z" stroke="currentColor" stroke-width="1.5"/>
				<path d="M9 16C9.85038 16.6303 10.8846 17 12 17C13.1154 17 14.1496 16.6303 15 16" stroke="currentColor" stroke-width="1.5" stroke-linecap="round"/>
			</g>
		</symbol>
		<symbol id="bold-close-circle" fill="none" viewBox="0 0 24 24">
			<g id="bold-close-circle">
				<path fill-rule="evenodd" clip-rule="evenodd" d="M22 12C22 17.5228 17.5228 22 12 22C6.47715 22 2 17.5228 2 12C2 6.47715 6.47715 2 12 2C17.5228 2 22 6.47715 22 12ZM8.96963 8.96965C9.26252 8.67676 9.73739 8.67676 10.0303 8.96965L12 10.9393L13.9696 8.96967C14.2625 8.67678 14.7374 8.67678 15.0303 8.96967C15.3232 9.26256 15.3232 9.73744 15.0303 10.0303L13.0606 12L15.0303 13.9696C15.3232 14.2625 15.3232 14.7374 15.0303 15.0303C14.7374 15.3232 14.2625 15.3232 13.9696 15.0303L12 13.0607L10.0303 15.0303C9.73742 15.3232 9.26254 15.3232 8.96965 15.0303C8.67676 14.7374 8.67676 14.2625 8.96965 13.9697L10.9393 12L8.96963 10.0303C8.67673 9.73742 8.67673 9.26254 8.96963 8.96965Z" fill="currentColor"/>
			</g>
		</symbol>
		<symbol id="check-circle" fill="none" viewBox="0 0 24 24">
			<g id="check-circle">
				<circle cx="12" cy="12" r="10" stroke="currentColor" stroke-width="1.5"/>
				<path d="M8.5 12.5L10.5 14.5L15.5 9.5" stroke="currentColor" stroke-width="1.5" stroke-linecap="round" stroke-linejoin="round"/>
			</g>
		</symbol>
		<symbol id="danger-circle" fill="none" viewBox="0 0 24 24">
			<g id="danger-circle">
				<circle cx="12" cy="12" r="10" stroke="currentColor" stroke-width="1.5"/>
				<path d="M12 7V13" stroke="currentColor" stroke-width="1.5" stroke-linecap="round"/>
				<circle cx="12" cy="16" r="1" fill="currentColor"/>
			</g>
		</symbol>
		<symbol id="close-circle" fill="none" viewBox="0 0 24 24">
			<g id="close-circle">
				<circle cx="12" cy="12" r="10" stroke="currentColor" stroke-width="1.5"/>
				<path d="M14.5 9.50002L9.5 14.5M9.49998 9.5L14.5 14.5" stroke="currentColor" stroke-width="1.5" stroke-linecap="round"/>
			</g>
		</symbol>
		<symbol id="trash" fill="none" viewBox="0 0 24 24">
			<g id="trash">
				<path d="M20.5001 6H3.5" stroke="currentColor" stroke-width="1.5" stroke-linecap="round"/>
				<path d="M18.8334 8.5L18.3735 15.3991C18.1965 18.054 18.108 19.3815 17.243 20.1907C16.378 21 15.0476 21 12.3868 21H11.6134C8.9526 21 7.6222 21 6.75719 20.1907C5.89218 19.3815 5.80368 18.054 5.62669 15.3991L5.16675 8.5" stroke="currentColor" stroke-width="1.5" stroke-linecap="round"/>
				<path d="M6.5 6C6.55588 6 6.58382 6 6.60915 5.99936C7.43259 5.97849 8.15902 5.45491 8.43922 4.68032C8.44784 4.65649 8.45667 4.62999 8.47434 4.57697L8.57143 4.28571C8.65431 4.03708 8.69575 3.91276 8.75071 3.8072C8.97001 3.38607 9.37574 3.09364 9.84461 3.01877C9.96213 3 10.0932 3 10.3553 3H13.6447C13.9068 3 14.0379 3 14.1554 3.01877C14.6243 3.09364 15.03 3.38607 15.2493 3.8072C15.3043 3.91276 15.3457 4.03708 15.4286 4.28571L15.5257 4.57697C15.5433 4.62992 15.5522 4.65651 15.5608 4.68032C15.841 5.45491 16.5674 5.97849 17.3909 5.99936C17.4162 6 17.4441 6 17.5 6" stroke="currentColor" stroke-width="1.5"/>
			</g>
		</symbol>
		<symbol id="plus-circle" fill="none" viewBox="0 0 24 24">
			<g id="plus-circle">
				<circle cx="12" cy="12" r="10" stroke="currentColor" stroke-width="1.5"/>
				<path d="M15 12L12 12M12 12L9 12M12 12L12 9M12 12L12 15" stroke="currentColor" stroke-width="1.5" stroke-linecap="round"/>
			</g>
		</symbol>
		<symbol id="share" fill="none" viewBox="0 0 24 24">
			<g id="share">
				<path d="M13 11L22 2M22 2H16.6562M22 2V7.34375" stroke="currentColor" stroke-width="1.5" stroke-linecap="round" stroke-linejoin="round"/>
				<path d="M22 12C22 16.714 22 19.0711 20.5355 20.5355C19.0711 22 16.714 22 12 22C7.28595 22 4.92893 22 3.46447 20.5355C2 19.0711 2 16.714 2 12C2 7.28595 2 4.92893 3.46447 3.46447C4.92893 2 7.28595 2 12 2" stroke="currentColor" stroke-width="1.5" stroke-linecap="round"/>
			</g>
		</symbol>
		<symbol id="link" fill="none" viewBox="0 0 24 24">
			<g id="link">
				<path d="M10.0464 14C8.54044 12.4882 8.67609 9.90087 10.3494 8.22108L15.197 3.35462C16.8703 1.67483 19.4476 1.53865 20.9536 3.05046C22.4596 4.56228 22.3239 7.14956 20.6506 8.82935L18.2268 11.2626" stroke="currentColor" stroke-width="1.5" stroke-linecap="round"/>
				<path d="M13.9536 10C15.4596 11.5118 15.3239 14.0991 13.6506 15.7789L11.2268 18.2121L8.80299 20.6454C7.12969 22.3252 4.55237 22.4613 3.0464 20.9495C1.54043 19.4377 1.67609 16.8504 3.34939 15.1706L5.77323 12.7373" stroke="currentColor" stroke-width="1.5" stroke-linecap="round"/>
			</g>
		</symbol>
		<symbol id="alt-arrow-up-down" fill="none" viewBox="0 0 24 24">
			<g id="alt-arrow-up-down">
				<path d="M19 8L12 2L5 8" stroke="currentColor" stroke-width="1.5" stroke-linecap="round" stroke-linejoin="round"/>
				<path d="M19 16L12 22L5 16" stroke="currentColor" stroke-width="1.5" stroke-linecap="round" stroke-linejoin="round"/>
			</g>
		</symbol>
		<symbol id="ruler-cross-pen" fill="none" viewBox="0 0 24 24">
			<g id="ruler-cross-pen">
				<path d="M13.2535 19.4243C12.9606 19.1314 12.4857 19.1314 12.1928 19.4243C11.8999 19.7172 11.8999 20.1921 12.1928 20.485L13.2535 19.4243ZM18.5083 19.9546L19.0387 20.485L18.5083 19.9546ZM4.04537 5.49167L4.5757 6.022H4.5757L4.04537 5.49167ZM3.51504 11.8072C3.80794 12.1001 4.28281 12.1001 4.5757 11.8072C4.8686 11.5143 4.8686 11.0394 4.5757 10.7465L3.51504 11.8072ZM11.2769 4.04537L11.8072 4.5757C11.9478 4.43505 12.0269 4.24428 12.0269 4.04537C12.0269 3.84646 11.9478 3.65569 11.8072 3.51504L11.2769 4.04537ZM5.49167 4.04537L4.96134 3.51504L4.96134 3.51504L5.49167 4.04537ZM19.9546 12.7231L20.485 12.1928C20.3443 12.0522 20.1535 11.9731 19.9546 11.9731C19.7557 11.9731 19.565 12.0522 19.4243 12.1928L19.9546 12.7231ZM19.9546 18.5083L19.4243 17.978L19.9546 18.5083ZM8.33603 5.92553C8.04314 6.21843 8.04314 6.6933 8.33603 6.98619C8.62892 7.27909 9.1038 7.27909 9.39669 6.98619L8.33603 5.92553ZM17.0138 14.6033C16.7209 14.8962 16.7209 15.3711 17.0138 15.664C17.3067 15.9569 17.7816 15.9569 18.0745 15.664L17.0138 14.6033ZM4.96134 3.51504L3.51504 4.96134L4.5757 6.022L6.022 4.5757L4.96134 3.51504ZM19.0387 20.485L20.485 19.0387L19.4243 17.978L17.978 19.4243L19.0387 20.485ZM12.1928 20.485C12.8596 21.1518 13.4119 21.7063 13.9081 22.0849C14.4217 22.4767 14.9622 22.75 15.6157 22.75V21.25C15.422 21.25 15.1981 21.1824 14.818 20.8924C14.4206 20.5892 13.9503 20.1211 13.2535 19.4243L12.1928 20.485ZM17.978 19.4243C17.2812 20.1211 16.8109 20.5892 16.4135 20.8924C16.0334 21.1824 15.8094 21.25 15.6157 21.25V22.75C16.2693 22.75 16.8098 22.4767 17.3233 22.0849C17.8195 21.7063 18.3719 21.1518 19.0387 20.485L17.978 19.4243ZM3.51504 4.96134C2.84824 5.62814 2.29367 6.18046 1.91508 6.67666C1.52328 7.19018 1.25 7.73073 1.25 8.38426H2.75C2.75 8.19057 2.81761 7.96662 3.10761 7.58654C3.41081 7.18914 3.87892 6.71878 4.5757 6.022L3.51504 4.96134ZM4.5757 10.7465C3.87892 10.0497 3.41081 9.57937 3.10761 9.18198C2.81761 8.8019 2.75 8.57795 2.75 8.38426H1.25C1.25 9.03779 1.52328 9.57835 1.91508 10.0919C2.29367 10.5881 2.84824 11.1404 3.51504 11.8072L4.5757 10.7465ZM11.8072 3.51504C11.1404 2.84824 10.5881 2.29367 10.0919 1.91508C9.57835 1.52328 9.03779 1.25 8.38426 1.25V2.75C8.57795 2.75 8.8019 2.81761 9.18199 3.10761C9.57938 3.41081 10.0497 3.87892 10.7465 4.5757L11.8072 3.51504ZM6.022 4.5757C6.71878 3.87892 7.18914 3.41081 7.58654 3.10761C7.96662 2.81762 8.19057 2.75 8.38426 2.75V1.25C7.73073 1.25 7.19018 1.52328 6.67666 1.91508C6.18046 2.29367 5.62814 2.84824 4.96134 3.51504L6.022 4.5757ZM19.4243 13.2535C20.1211 13.9503 20.5892 14.4206 20.8924 14.818C21.1824 15.1981 21.25 15.422 21.25 15.6157H22.75C22.75 14.9622 22.4767 14.4217 22.0849 13.9081C21.7063 13.4119 21.1518 12.8596 20.485 12.1928L19.4243 13.2535ZM20.485 19.0387C21.1518 18.3719 21.7063 17.8195 22.0849 17.3233C22.4767 16.8098 22.75 16.2693 22.75 15.6157H21.25C21.25 15.8094 21.1824 16.0334 20.8924 16.4135C20.5892 16.8109 20.1211 17.2812 19.4243 17.978L20.485 19.0387ZM10.7465 3.51504L8.33603 5.92553L9.39669 6.98619L11.8072 4.5757L10.7465 3.51504ZM19.4243 12.1928L17.0138 14.6033L18.0745 15.664L20.485 13.2535L19.4243 12.1928Z" fill="currentColor"/>
				<path d="M14.3601 4.07866L15.2869 3.15178C16.8226 1.61607 19.3125 1.61607 20.8482 3.15178C22.3839 4.68748 22.3839 7.17735 20.8482 8.71306L19.9213 9.63993M14.3601 4.07866C14.3601 4.07866 14.4759 6.04828 16.2138 7.78618C17.9517 9.52407 19.9213 9.63993 19.9213 9.63993M14.3601 4.07866L5.83882 12.5999C5.26166 13.1771 4.97308 13.4656 4.7249 13.7838C4.43213 14.1592 4.18114 14.5653 3.97634 14.995C3.80273 15.3593 3.67368 15.7465 3.41556 16.5208L2.58917 19L2.32181 19.8021M19.9213 9.63993L11.4001 18.1612C10.8229 18.7383 10.5344 19.0269 10.2162 19.2751C9.84082 19.5679 9.43469 19.8189 9.00498 20.0237C8.6407 20.1973 8.25352 20.3263 7.47918 20.5844L5 21.4108L4.19792 21.6782M4.19792 21.6782L3.39584 21.9456C3.01478 22.0726 2.59466 21.9734 2.31063 21.6894C2.0266 21.4053 1.92743 20.9852 2.05445 20.6042L2.32181 19.8021M4.19792 21.6782L2.32181 19.8021" stroke="currentColor" stroke-width="1.5"/>
			</g>
		</symbol>
		<symbol id="share-circle" fill="none" viewBox="0 0 24 24">
			<g id="share-circle">
				<path d="M12 9C10.3431 9 9 7.65685 9 6C9 4.34315 10.3431 3 12 3C13.6569 3 15 4.34315 15 6C15 7.65685 13.6569 9 12 9Z" stroke="currentColor" stroke-width="1.5"/>
				<path d="M5.5 21C3.84315 21 2.5 19.6569 2.5 18C2.5 16.3431 3.84315 15 5.5 15C7.15685 15 8.5 16.3431 8.5 18C8.5 19.6569 7.15685 21 5.5 21Z" stroke="currentColor" stroke-width="1.5"/>
				<path d="M18.5 21C16.8431 21 15.5 19.6569 15.5 18C15.5 16.3431 16.8431 15 18.5 15C20.1569 15 21.5 16.3431 21.5 18C21.5 19.6569 20.1569 21 18.5 21Z" stroke="currentColor" stroke-width="1.5"/>
				<path d="M20 13C20 10.6106 18.9525 8.46589 17.2916 7M4 13C4 10.6106 5.04752 8.46589 6.70838 7M10 20.748C10.6392 20.9125 11.3094 21 12 21C12.6906 21 13.3608 20.9125 14 20.748" stroke="currentColor" stroke-width="1.5" stroke-linecap="round"/>
			</g>
		</symbol>
		<symbol id="user-rounded" fill="none" viewBox="0 0 24 24">
			<g id="user-rounded">
				<circle cx="12" cy="6" r="4" stroke="currentColor" stroke-width="1.5"/>
				<ellipse cx="12" cy="17" rx="7" ry="4" stroke="currentColor" stroke-width="1.5"/>
			</g>
		</symbol>
		<symbol id="sidebar" fill="none" viewBox="0 0 24 24">
			<g id="sidebar">
				<path d="M2 11C2 7.22876 2 5.34315 3.17157 4.17157C4.34315 3 6.22876 3 10 3H14C17.7712 3 19.6569 3 20.8284 4.17157C22 5.34315 22 7.22876 22 11V13C22 16.7712 22 18.6569 20.8284 19.8284C19.6569 21 17.7712 21 14 21H10C6.22876 21 4.34315 21 3.17157 19.8284C2 18.6569 2 16.7712 2 13V11Z" stroke="currentColor" stroke-width="1.5"/>
				<path d="M5.5 10H11.5" stroke="currentColor" stroke-width="1.5" stroke-linecap="round"/>
				<path d="M6.5 14H10.5" stroke="currentColor" stroke-width="1.5" stroke-linecap="round"/>
				<path d="M15 21L15 3" stroke="currentColor" stroke-width="1.5" stroke-linecap="round"/>
			</g>
		</symbol>	
		<symbol id="sidebar-bold" fill="none" viewBox="0 0 24 24">
			<g id="sidebar-bold">
				<path d="M22 11V13C22 16.7712 22 18.6569 20.8284 19.8284C19.8541 20.8028 18.3859 20.9668 15.75 20.9944V3.00559C18.3859 3.03321 19.8541 3.19724 20.8284 4.17157C22 5.34315 22 7.22876 22 11Z" fill="currentColor"/>
				<path fill-rule="evenodd" clip-rule="evenodd" d="M10 3H14H14.25L14.25 21H14H10C6.22876 21 4.34315 21 3.17157 19.8284C2 18.6569 2 16.7712 2 13V11C2 7.22876 2 5.34315 3.17157 4.17157C4.34315 3 6.22876 3 10 3ZM4.75 10C4.75 9.58579 5.08579 9.25 5.5 9.25H11.5C11.9142 9.25 12.25 9.58579 12.25 10C12.25 10.4142 11.9142 10.75 11.5 10.75H5.5C5.08579 10.75 4.75 10.4142 4.75 10ZM5.75 14C5.75 13.5858 6.08579 13.25 6.5 13.25H10.5C10.9142 13.25 11.25 13.5858 11.25 14C11.25 14.4142 10.9142 14.75 10.5 14.75H6.5C6.08579 14.75 5.75 14.4142 5.75 14Z" fill="currentColor"/>
			</g>
		</symbol>
		<symbol id="notification-readed-lines" fill="none" viewBox="0 0 24 24">
			<g id="notification-readed-lines">
				<path d="M22 10.5V12C22 16.714 22 19.0711 20.5355 20.5355C19.0711 22 16.714 22 12 22C7.28595 22 4.92893 22 3.46447 20.5355C2 19.0711 2 16.714 2 12C2 7.28595 2 4.92893 3.46447 3.46447C4.92893 2 7.28595 2 12 2H13.5" stroke="currentColor" stroke-width="1.5" stroke-linecap="round"/>
				<path d="M2 10.5V12C2 16.714 2 19.0711 3.46447 20.5355C4.92893 22 7.28595 22 12 22C16.714 22 19.0711 22 20.5355 20.5355C22 19.0711 22 16.714 22 12C22 7.28595 22 4.92893 20.5355 3.46447C19.0711 2 16.714 2 12 2H10.5" stroke="currentColor" stroke-width="1.5" stroke-linecap="round"/>
				<path d="M7 14H16" stroke="currentColor" stroke-width="1.5" stroke-linecap="round"/>
				<path d="M7 17.5H13" stroke="currentColor" stroke-width="1.5" stroke-linecap="round"/>
			</g>
		</symbol>	
		<symbol id="notification-unread-lines" fill="none" viewBox="0 0 24 24">
			<g id="notification-unread-lines">
				<path d="M22 10.5V12C22 16.714 22 19.0711 20.5355 20.5355C19.0711 22 16.714 22 12 22C7.28595 22 4.92893 22 3.46447 20.5355C2 19.0711 2 16.714 2 12C2 7.28595 2 4.92893 3.46447 3.46447C4.92893 2 7.28595 2 12 2H13.5" stroke="currentColor" stroke-width="1.5" stroke-linecap="round"/>
				<circle cx="19.5" cy="4.5" r="3.5" fill="#DE1112"/>
				<path d="M7 14H16" stroke="currentColor" stroke-width="1.5" stroke-linecap="round"/>
				<path d="M7 17.5H13" stroke="currentColor" stroke-width="1.5" stroke-linecap="round"/>
			</g>
		</symbol>			
		<symbol id="chat-round" fill="none" viewBox="0 0 24 24">
			<g id="chat-round">
				<path d="M12 22C17.5228 22 22 17.5228 22 12C22 6.47715 17.5228 2 12 2C6.47715 2 2 6.47715 2 12C2 13.5997 2.37562 15.1116 3.04346 16.4525C3.22094 16.8088 3.28001 17.2161 3.17712 17.6006L2.58151 19.8267C2.32295 20.793 3.20701 21.677 4.17335 21.4185L6.39939 20.8229C6.78393 20.72 7.19121 20.7791 7.54753 20.9565C8.88837 21.6244 10.4003 22 12 22Z" stroke="currentColor" stroke-width="1.5"/>
			</g>
		</symbol>	
		<symbol id="chat-round-unread" fill="none" viewBox="0 0 24 24">
			<g id="chat-round-unread">
				<circle cx="3" cy="3" r="3" transform="matrix(-1 0 0 1 22 2)" fill="#DE1112" stroke="#DE1112" stroke-width="1.5"/>
				<path d="M14 2.20004C13.3538 2.06886 12.6849 2 12 2C6.47715 2 2 6.47715 2 12C2 13.5997 2.37562 15.1116 3.04346 16.4525C3.22094 16.8088 3.28001 17.2161 3.17712 17.6006L2.58151 19.8267C2.32295 20.793 3.20701 21.677 4.17335 21.4185L6.39939 20.8229C6.78393 20.72 7.19121 20.7791 7.54753 20.9565C8.88837 21.6244 10.4003 22 12 22C17.5228 22 22 17.5228 22 12C22 11.3151 21.9311 10.6462 21.8 10" stroke="currentColor" stroke-width="1.5" stroke-linecap="round"/>
			</g>
		</symbol>			
		<symbol id="bell" fill="none" viewBox="0 0 24 24">
			<g id="bell">
				<path d="M18.7491 9.70957V9.00496C18.7491 5.13623 15.7274 2 12 2C8.27256 2 5.25087 5.13623 5.25087 9.00496V9.70957C5.25087 10.5552 5.00972 11.3818 4.5578 12.0854L3.45036 13.8095C2.43882 15.3843 3.21105 17.5249 4.97036 18.0229C9.57274 19.3257 14.4273 19.3257 19.0296 18.0229C20.789 17.5249 21.5612 15.3843 20.5496 13.8095L19.4422 12.0854C18.9903 11.3818 18.7491 10.5552 18.7491 9.70957Z" stroke="currentColor" stroke-width="1.5"/>
				<path d="M7.5 19C8.15503 20.7478 9.92246 22 12 22C14.0775 22 15.845 20.7478 16.5 19" stroke="currentColor" stroke-width="1.5" stroke-linecap="round"/>
			</g>
		</symbol>	
		<symbol id="bell-unread" fill="none" viewBox="0 0 24 24">
			<g clip-path="url(#clip0_4089_3253)" id="bell-unread">
			<path d="M18.7491 9.70957V9.00496C18.7491 5.13623 15.7274 2 12 2C8.27256 2 5.25087 5.13623 5.25087 9.00496V9.70957C5.25087 10.5552 5.00972 11.3818 4.5578 12.0854L3.45036 13.8095C2.43882 15.3843 3.21105 17.5249 4.97036 18.0229C9.57274 19.3257 14.4273 19.3257 19.0296 18.0229C20.789 17.5249 21.5612 15.3843 20.5496 13.8095L19.4422 12.0854C18.9903 11.3818 18.7491 10.5552 18.7491 9.70957Z" stroke="currentColor" stroke-width="1.5"/>
			<circle cx="17.5" cy="4.5" r="4.25" fill="#DE1112" stroke="white" stroke-width="1.5"/>
			<path d="M7.5 19C8.15503 20.7478 9.92246 22 12 22C14.0775 22 15.845 20.7478 16.5 19" stroke="currentColor" stroke-width="1.5" stroke-linecap="round"/>
			</g>
			<defs>
			<clipPath id="clip0_4089_3253">
			<rect width="24" height="24" rx="5" fill="white"/>
			</clipPath>
			</defs>
		</symbol>	
		<symbol id="delivery" fill="none" viewBox="0 0 24 24">
			<g id="delivery">
				<path d="M7.50626 15.2647C7.61657 15.6639 8.02965 15.8982 8.4289 15.7879C8.82816 15.6776 9.06241 15.2645 8.9521 14.8652L7.50626 15.2647ZM6.07692 7.27442L6.79984 7.0747V7.0747L6.07692 7.27442ZM4.7037 5.91995L4.50319 6.64265L4.7037 5.91995ZM3.20051 4.72457C2.80138 4.61383 2.38804 4.84762 2.2773 5.24675C2.16656 5.64589 2.40035 6.05923 2.79949 6.16997L3.20051 4.72457ZM20.1886 15.7254C20.5895 15.6213 20.8301 15.2118 20.7259 14.8109C20.6217 14.41 20.2123 14.1695 19.8114 14.2737L20.1886 15.7254ZM10.1978 17.5588C10.5074 18.6795 9.82778 19.8618 8.62389 20.1747L9.00118 21.6265C10.9782 21.1127 12.1863 19.1239 11.6436 17.1594L10.1978 17.5588ZM8.62389 20.1747C7.41216 20.4896 6.19622 19.7863 5.88401 18.6562L4.43817 19.0556C4.97829 21.0107 7.03196 22.1383 9.00118 21.6265L8.62389 20.1747ZM5.88401 18.6562C5.57441 17.5355 6.254 16.3532 7.4579 16.0403L7.08061 14.5885C5.10356 15.1023 3.89544 17.0911 4.43817 19.0556L5.88401 18.6562ZM7.4579 16.0403C8.66962 15.7254 9.88556 16.4287 10.1978 17.5588L11.6436 17.1594C11.1035 15.2043 9.04982 14.0768 7.08061 14.5885L7.4579 16.0403ZM8.9521 14.8652L6.79984 7.0747L5.354 7.47414L7.50626 15.2647L8.9521 14.8652ZM4.90421 5.19725L3.20051 4.72457L2.79949 6.16997L4.50319 6.64265L4.90421 5.19725ZM6.79984 7.0747C6.54671 6.15847 5.8211 5.45164 4.90421 5.19725L4.50319 6.64265C4.92878 6.76073 5.24573 7.08223 5.354 7.47414L6.79984 7.0747ZM11.1093 18.085L20.1886 15.7254L19.8114 14.2737L10.732 16.6332L11.1093 18.085Z" fill="currentColor"/>
				<path d="M9.56541 8.73049C9.0804 6.97492 8.8379 6.09714 9.24954 5.40562C9.66119 4.71409 10.5662 4.47889 12.3763 4.00849L14.2962 3.50955C16.1062 3.03915 17.0113 2.80394 17.7242 3.20319C18.4372 3.60244 18.6797 4.48023 19.1647 6.2358L19.6792 8.09786C20.1642 9.85343 20.4067 10.7312 19.995 11.4227C19.5834 12.1143 18.6784 12.3495 16.8683 12.8199L14.9484 13.3188C13.1384 13.7892 12.2333 14.0244 11.5203 13.6252C10.8073 13.2259 10.5648 12.3481 10.0798 10.5926L9.56541 8.73049Z" stroke="currentColor" stroke-width="1.5"/>
			</g>
		</symbol>	
		<symbol id="alt-arrow-down" fill="none" viewBox="0 0 24 24">
			<g id="alt-arrow-down">
				<path d="M19 9L12 15L5 9" stroke="currentColor" stroke-width="1.5" stroke-linecap="round" stroke-linejoin="round"/>
			</g>
		</symbol>
		<symbol id="hamburger-menu-retracted" fill="none" viewBox="0 0 24 24">
			<g id="hamburger-menu-retracted">
				<path d="M20 7L4 7" stroke="currentColor" stroke-width="1.5" stroke-linecap="round"/>
				<path d="M20 12L4 12" stroke="currentColor" stroke-width="1.5" stroke-linecap="round"/>
				<path d="M12 17H4" stroke="currentColor" stroke-width="1.5" stroke-linecap="round"/>
			</g>
		</symbol>
		<symbol id="hamburger-menu-retracted-notification" fill="none" viewBox="0 0 24 24">
			<g id="hamburger-menu-retracted-notification">
				<path d="M20 7L4 7" stroke="currentColor" stroke-width="1.5" stroke-linecap="round"/>
				<circle cx="18.5" cy="5.5" r="4.25" fill="#DE1112" stroke="white" stroke-width="1.5"/>
				<path d="M20 12L4 12" stroke="currentColor" stroke-width="1.5" stroke-linecap="round"/>
				<path d="M12 17H4" stroke="currentColor" stroke-width="1.5" stroke-linecap="round"/>
			</g>
		</symbol>	
		<symbol id="settings" fill="none" viewBox="0 0 24 24">
			<g id="settings">
				<circle cx="12" cy="12" r="3" stroke="currentColor" stroke-width="1.5"/>
				<path d="M13.7654 2.15224C13.3978 2 12.9319 2 12 2C11.0681 2 10.6022 2 10.2346 2.15224C9.74457 2.35523 9.35522 2.74458 9.15223 3.23463C9.05957 3.45834 9.0233 3.7185 9.00911 4.09799C8.98826 4.65568 8.70226 5.17189 8.21894 5.45093C7.73564 5.72996 7.14559 5.71954 6.65219 5.45876C6.31645 5.2813 6.07301 5.18262 5.83294 5.15102C5.30704 5.08178 4.77518 5.22429 4.35436 5.5472C4.03874 5.78938 3.80577 6.1929 3.33983 6.99993C2.87389 7.80697 2.64092 8.21048 2.58899 8.60491C2.51976 9.1308 2.66227 9.66266 2.98518 10.0835C3.13256 10.2756 3.3397 10.437 3.66119 10.639C4.1338 10.936 4.43789 11.4419 4.43786 12C4.43783 12.5581 4.13375 13.0639 3.66118 13.3608C3.33965 13.5629 3.13248 13.7244 2.98508 13.9165C2.66217 14.3373 2.51966 14.8691 2.5889 15.395C2.64082 15.7894 2.87379 16.193 3.33973 17C3.80568 17.807 4.03865 18.2106 4.35426 18.4527C4.77508 18.7756 5.30694 18.9181 5.83284 18.8489C6.07289 18.8173 6.31632 18.7186 6.65204 18.5412C7.14547 18.2804 7.73556 18.27 8.2189 18.549C8.70224 18.8281 8.98826 19.3443 9.00911 19.9021C9.02331 20.2815 9.05957 20.5417 9.15223 20.7654C9.35522 21.2554 9.74457 21.6448 10.2346 21.8478C10.6022 22 11.0681 22 12 22C12.9319 22 13.3978 22 13.7654 21.8478C14.2554 21.6448 14.6448 21.2554 14.8477 20.7654C14.9404 20.5417 14.9767 20.2815 14.9909 19.902C15.0117 19.3443 15.2977 18.8281 15.781 18.549C16.2643 18.2699 16.8544 18.2804 17.3479 18.5412C17.6836 18.7186 17.927 18.8172 18.167 18.8488C18.6929 18.9181 19.2248 18.7756 19.6456 18.4527C19.9612 18.2105 20.1942 17.807 20.6601 16.9999C21.1261 16.1929 21.3591 15.7894 21.411 15.395C21.4802 14.8691 21.3377 14.3372 21.0148 13.9164C20.8674 13.7243 20.6602 13.5628 20.3387 13.3608C19.8662 13.0639 19.5621 12.558 19.5621 11.9999C19.5621 11.4418 19.8662 10.9361 20.3387 10.6392C20.6603 10.4371 20.8675 10.2757 21.0149 10.0835C21.3378 9.66273 21.4803 9.13087 21.4111 8.60497C21.3592 8.21055 21.1262 7.80703 20.6602 7C20.1943 6.19297 19.9613 5.78945 19.6457 5.54727C19.2249 5.22436 18.693 5.08185 18.1671 5.15109C17.9271 5.18269 17.6837 5.28136 17.3479 5.4588C16.8545 5.71959 16.2644 5.73002 15.7811 5.45096C15.2977 5.17191 15.0117 4.65566 14.9909 4.09794C14.9767 3.71848 14.9404 3.45833 14.8477 3.23463C14.6448 2.74458 14.2554 2.35523 13.7654 2.15224Z" stroke="currentColor" stroke-width="1.5"/>
			</g>
		</symbol>	
		<symbol id="question-circle" fill="none" viewBox="0 0 24 24">
			<g id="question-circle">
				<circle cx="12" cy="12" r="10" stroke="currentColor" stroke-width="1.5"/>
				<path d="M10.125 8.875C10.125 7.83947 10.9645 7 12 7C13.0355 7 13.875 7.83947 13.875 8.875C13.875 9.56245 13.505 10.1635 12.9534 10.4899C12.478 10.7711 12 11.1977 12 11.75V13" stroke="currentColor" stroke-width="1.5" stroke-linecap="round"/>
				<circle cx="12" cy="16" r="1" fill="currentColor"/>
			</g>
		</symbol>	
		<symbol id="exit" fill="none" viewBox="0 0 24 24">
			<g id="exit">
				<path d="M9 4.5H8C5.64298 4.5 4.46447 4.5 3.73223 5.23223C3 5.96447 3 7.14298 3 9.5V14.5C3 16.857 3 18.0355 3.73223 18.7678C4.46447 19.5 5.64298 19.5 8 19.5H9" stroke="currentColor" stroke-width="1.5"/>
				<path d="M9 6.4764C9 4.18259 9 3.03569 9.70725 2.4087C10.4145 1.78171 11.4955 1.97026 13.6576 2.34736L15.9864 2.75354C18.3809 3.17118 19.5781 3.37999 20.2891 4.25826C21 5.13652 21 6.40672 21 8.94711V15.0529C21 17.5933 21 18.8635 20.2891 19.7417C19.5781 20.62 18.3809 20.8288 15.9864 21.2465L13.6576 21.6526C11.4955 22.0297 10.4145 22.2183 9.70725 21.5913C9 20.9643 9 19.8174 9 17.5236V6.4764Z" stroke="currentColor" stroke-width="1.5"/>
				<path d="M12 11V13" stroke="currentColor" stroke-width="1.5" stroke-linecap="round"/>
			</g>
		</symbol>	
		<symbol id="logout-2" fill="none" viewBox="0 0 24 24">
			<g id="logout-2">
				<path d="M9.00195 7C9.01406 4.82497 9.11051 3.64706 9.87889 2.87868C10.7576 2 12.1718 2 15.0002 2L16.0002 2C18.8286 2 20.2429 2 21.1215 2.87868C22.0002 3.75736 22.0002 5.17157 22.0002 8L22.0002 16C22.0002 18.8284 22.0002 20.2426 21.1215 21.1213C20.2429 22 18.8286 22 16.0002 22H15.0002C12.1718 22 10.7576 22 9.87889 21.1213C9.11051 20.3529 9.01406 19.175 9.00195 17" stroke="currentColor" stroke-width="1.5" stroke-linecap="round"/>				<path d="M15 12L2 12M2 12L5.5 9M2 12L5.5 15" stroke="currentColor" stroke-width="1.5" stroke-linecap="round" stroke-linejoin="round"/>
			</g>
		</symbol>
		<symbol id="close" fill="none" viewBox="0 0 24 24">
			<g id="close">
				<path d="M18 6.00005L6 18M5.99995 6L17.9999 18" stroke="currentColor" stroke-width="1.5" stroke-linecap="round"/>
			</g>
		</symbol>	
		<symbol id="magnifer" fill="none" viewBox="0 0 24 24">
			<g id="magnifer">
				<circle cx="11.5" cy="11.5" r="9.5" stroke="currentColor" stroke-width="1.5"/>
				<path d="M18.5 18.5L22 22" stroke="currentColor" stroke-width="1.5" stroke-linecap="round"/>
			</g>
		</symbol>			
	</defs>
</svg>