<svg xmlns="http://www.w3.org/2000/svg" style="display:none;">
	<defs>
		<symbol id="social-google" fill="none" viewBox="0 0 24 24">
		    <g id="social-google">
				<path d="M21.8055 10.0415H21V10H12V14H17.6515C16.827 16.3285 14.6115 18 12 18C8.6865 18 6 15.3135 6 12C6 8.6865 8.6865 6 12 6C13.5295 6 14.921 6.577 15.9805 7.5195L18.809 4.691C17.023 3.0265 14.634 2 12 2C6.4775 2 2 6.4775 2 12C2 17.5225 6.4775 22 12 22C17.5225 22 22 17.5225 22 12C22 11.3295 21.931 10.675 21.8055 10.0415Z" fill="#FFC107"/>
				<path d="M3.15283 7.3455L6.43833 9.755C7.32733 7.554 9.48033 6 11.9998 6C13.5293 6 14.9208 6.577 15.9803 7.5195L18.8088 4.691C17.0228 3.0265 14.6338 2 11.9998 2C8.15883 2 4.82783 4.1685 3.15283 7.3455Z" fill="#FF3D00"/>
				<path d="M12.0002 22.0003C14.5832 22.0003 16.9302 21.0118 18.7047 19.4043L15.6097 16.7853C14.5721 17.5749 13.3039 18.0017 12.0002 18.0003C9.39916 18.0003 7.19066 16.3418 6.35866 14.0273L3.09766 16.5398C4.75266 19.7783 8.11366 22.0003 12.0002 22.0003Z" fill="#4CAF50"/>
				<path d="M21.8055 10.0415H21V10H12V14H17.6515C17.2571 15.1082 16.5467 16.0766 15.608 16.7855L15.6095 16.7845L18.7045 19.4035C18.4855 19.6025 22 17 22 12C22 11.3295 21.931 10.675 21.8055 10.0415Z" fill="#1976D2"/>
			</g>
		</symbol>
		<symbol id="social-apple" fill="none" viewBox="0 0 24 24">
			<g id="social-apple">
				<path d="M17.0499 20.28C16.0699 21.23 14.9999 21.08 13.9699 20.63C12.8799 20.17 11.8799 20.15 10.7299 20.63C9.28992 21.25 8.52992 21.07 7.66992 20.28C2.78992 15.25 3.50992 7.59 9.04992 7.31C10.3999 7.38 11.3399 8.05 12.1299 8.11C13.3099 7.87 14.4399 7.18 15.6999 7.27C17.2099 7.39 18.3499 7.99 19.0999 9.07C15.9799 10.94 16.7199 15.05 19.5799 16.2C19.0099 17.7 18.2699 19.19 17.0399 20.29L17.0499 20.28ZM12.0299 7.25C11.8799 5.02 13.6899 3.18 15.7699 3C16.0599 5.58 13.4299 7.5 12.0299 7.25Z" fill="black"/>
			</g>
		</symbol>
		<symbol id="social-microsoft" fill="none" viewBox="0 0 24 24">
			<g id="social-microsoft">
				<path d="M11.5049 11.5049H2V2H11.5049V11.5049Z" fill="#F1511B"/>
				<path d="M21.9994 11.5049H12.4946V2H21.9994V11.5049Z" fill="#80CC28"/>
				<path d="M11.5046 22H2V12.4951H11.5046V22Z" fill="#00ADEF"/>
				<path d="M21.9994 22H12.4946V12.4951H21.9994V22Z" fill="#FBBC09"/>
			</g>
		</symbol>
		<symbol id="eye" fill="none" viewBox="0 0 24 24">
			<g id="eye">
				<path d="M3.27489 15.2957C2.42496 14.1915 2 13.6394 2 12C2 10.3606 2.42496 9.80853 3.27489 8.70433C4.97196 6.49956 7.81811 4 12 4C16.1819 4 19.028 6.49956 20.7251 8.70433C21.575 9.80853 22 10.3606 22 12C22 13.6394 21.575 14.1915 20.7251 15.2957C19.028 17.5004 16.1819 20 12 20C7.81811 20 4.97196 17.5004 3.27489 15.2957Z" stroke="currentColor" stroke-width="1.5"/>
				<path d="M15 12C15 13.6569 13.6569 15 12 15C10.3431 15 9 13.6569 9 12C9 10.3431 10.3431 9 12 9C13.6569 9 15 10.3431 15 12Z" stroke="currentColor" stroke-width="1.5"/>
			</g>
		</symbol>
		<symbol id="eye-closed" fill="none" viewBox="0 0 24 24">
			<g id="eye-closed">
				<path d="M2.68936 6.70456C2.52619 6.32384 2.08528 6.14747 1.70456 6.31064C1.32384 6.47381 1.14747 6.91472 1.31064 7.29544L2.68936 6.70456ZM15.5872 13.3287L15.3125 12.6308L15.5872 13.3287ZM9.04145 13.7377C9.26736 13.3906 9.16904 12.926 8.82185 12.7001C8.47466 12.4742 8.01008 12.5725 7.78417 12.9197L9.04145 13.7377ZM6.37136 15.091C6.14545 15.4381 6.24377 15.9027 6.59096 16.1286C6.93815 16.3545 7.40273 16.2562 7.62864 15.909L6.37136 15.091ZM22.6894 7.29544C22.8525 6.91472 22.6762 6.47381 22.2954 6.31064C21.9147 6.14747 21.4738 6.32384 21.3106 6.70456L22.6894 7.29544ZM19 11.1288L18.4867 10.582V10.582L19 11.1288ZM19.9697 13.1592C20.2626 13.4521 20.7374 13.4521 21.0303 13.1592C21.3232 12.8663 21.3232 12.3914 21.0303 12.0985L19.9697 13.1592ZM11.25 16.5C11.25 16.9142 11.5858 17.25 12 17.25C12.4142 17.25 12.75 16.9142 12.75 16.5H11.25ZM16.3714 15.909C16.5973 16.2562 17.0619 16.3545 17.409 16.1286C17.7562 15.9027 17.8545 15.4381 17.6286 15.091L16.3714 15.909ZM5.53033 11.6592C5.82322 11.3663 5.82322 10.8914 5.53033 10.5985C5.23744 10.3056 4.76256 10.3056 4.46967 10.5985L5.53033 11.6592ZM2.96967 12.0985C2.67678 12.3914 2.67678 12.8663 2.96967 13.1592C3.26256 13.4521 3.73744 13.4521 4.03033 13.1592L2.96967 12.0985ZM12 13.25C8.77611 13.25 6.46133 11.6446 4.9246 9.98966C4.15645 9.16243 3.59325 8.33284 3.22259 7.71014C3.03769 7.3995 2.90187 7.14232 2.8134 6.96537C2.76919 6.87696 2.73689 6.80875 2.71627 6.76411C2.70597 6.7418 2.69859 6.7254 2.69411 6.71533C2.69187 6.7103 2.69036 6.70684 2.68957 6.70503C2.68917 6.70413 2.68896 6.70363 2.68892 6.70355C2.68891 6.70351 2.68893 6.70357 2.68901 6.70374C2.68904 6.70382 2.68913 6.70403 2.68915 6.70407C2.68925 6.7043 2.68936 6.70456 2 7C1.31064 7.29544 1.31077 7.29575 1.31092 7.29609C1.31098 7.29624 1.31114 7.2966 1.31127 7.2969C1.31152 7.29749 1.31183 7.2982 1.31218 7.299C1.31287 7.30062 1.31376 7.30266 1.31483 7.30512C1.31698 7.31003 1.31988 7.31662 1.32353 7.32483C1.33083 7.34125 1.34115 7.36415 1.35453 7.39311C1.38127 7.45102 1.42026 7.5332 1.47176 7.63619C1.57469 7.84206 1.72794 8.13175 1.93366 8.47736C2.34425 9.16716 2.96855 10.0876 3.8254 11.0103C5.53867 12.8554 8.22389 14.75 12 14.75V13.25ZM15.3125 12.6308C14.3421 13.0128 13.2417 13.25 12 13.25V14.75C13.4382 14.75 14.7246 14.4742 15.8619 14.0266L15.3125 12.6308ZM7.78417 12.9197L6.37136 15.091L7.62864 15.909L9.04145 13.7377L7.78417 12.9197ZM22 7C21.3106 6.70456 21.3107 6.70441 21.3108 6.70427C21.3108 6.70423 21.3108 6.7041 21.3109 6.70402C21.3109 6.70388 21.311 6.70376 21.311 6.70368C21.3111 6.70352 21.3111 6.70349 21.3111 6.7036C21.311 6.7038 21.3107 6.70452 21.3101 6.70576C21.309 6.70823 21.307 6.71275 21.3041 6.71924C21.2983 6.73223 21.2889 6.75309 21.2758 6.78125C21.2495 6.83757 21.2086 6.92295 21.1526 7.03267C21.0406 7.25227 20.869 7.56831 20.6354 7.9432C20.1669 8.69516 19.4563 9.67197 18.4867 10.582L19.5133 11.6757C20.6023 10.6535 21.3917 9.56587 21.9085 8.73646C22.1676 8.32068 22.36 7.9668 22.4889 7.71415C22.5533 7.58775 22.602 7.48643 22.6353 7.41507C22.6519 7.37939 22.6647 7.35118 22.6737 7.33104C22.6782 7.32097 22.6818 7.31292 22.6844 7.30696C22.6857 7.30398 22.6867 7.30153 22.6876 7.2996C22.688 7.29864 22.6883 7.29781 22.6886 7.29712C22.6888 7.29677 22.6889 7.29646 22.689 7.29618C22.6891 7.29604 22.6892 7.29585 22.6892 7.29578C22.6893 7.29561 22.6894 7.29544 22 7ZM18.4867 10.582C17.6277 11.3882 16.5739 12.1343 15.3125 12.6308L15.8619 14.0266C17.3355 13.4466 18.5466 12.583 19.5133 11.6757L18.4867 10.582ZM18.4697 11.6592L19.9697 13.1592L21.0303 12.0985L19.5303 10.5985L18.4697 11.6592ZM11.25 14V16.5H12.75V14H11.25ZM14.9586 13.7377L16.3714 15.909L17.6286 15.091L16.2158 12.9197L14.9586 13.7377ZM4.46967 10.5985L2.96967 12.0985L4.03033 13.1592L5.53033 11.6592L4.46967 10.5985Z" fill="currentColor"/>
			</g>
		</symbol>
		<symbol id="info-circle" fill="none" viewBox="0 0 24 24">
			<g id="info-circle">
				<circle cx="12" cy="12" r="10" stroke="currentColor" stroke-width="1.5"/>
				<path d="M12 17V11" stroke="currentColor" stroke-width="1.5" stroke-linecap="round"/>
				<circle cx="1" cy="1" r="1" transform="matrix(1 0 0 -1 11 9)" fill="currentColor"/>
			</g>
		</symbol>
		<symbol id="lock" fill="none" viewBox="0 0 24 24">
			<g id="lock">
				<path d="M2 16C2 13.1716 2 11.7574 2.87868 10.8787C3.75736 10 5.17157 10 8 10H16C18.8284 10 20.2426 10 21.1213 10.8787C22 11.7574 22 13.1716 22 16C22 18.8284 22 20.2426 21.1213 21.1213C20.2426 22 18.8284 22 16 22H8C5.17157 22 3.75736 22 2.87868 21.1213C2 20.2426 2 18.8284 2 16Z" stroke="currentColor" stroke-width="1.5"/>
				<path d="M6 10V8C6 4.68629 8.68629 2 12 2C15.3137 2 18 4.68629 18 8V10" stroke="currentColor" stroke-width="1.5" stroke-linecap="round"/>
			</g>
		</symbol>
		<symbol id="arrow-right" fill="none" viewBox="0 0 24 24">
			<g id="arrow-right">
				<path d="M4 12H20M20 12L14 6M20 12L14 18" stroke="currentColor" stroke-width="1.5" stroke-linecap="round" stroke-linejoin="round"/>
			</g>
		</symbol>
		<symbol id="arrow-left" fill="none" viewBox="0 0 24 24">
			<g id="arrow-left">
				<path d="M20 12H4M4 12L10 6M4 12L10 18" stroke="currentColor" stroke-width="1.5" stroke-linecap="round" stroke-linejoin="round"/>
			</g>
		</symbol>
		<symbol id="alt-right-down" fill="none" viewBox="0 0 24 24">
			<g id="alt-right-down">
				<path d="M19 9L12 15L5 9" stroke="currentColor" stroke-width="1.5" stroke-linecap="round" stroke-linejoin="round"/>
			</g>
		</symbol>
		<symbol id="square-top-down" fill="none" viewBox="0 0 24 24">
			<g id="square-top-down">
				<path d="M13 11L22 2M22 2H16.6562M22 2V7.34375" stroke="currentColor" stroke-width="1.5" stroke-linecap="round" stroke-linejoin="round"/>
				<path d="M22 12C22 16.714 22 19.0711 20.5355 20.5355C19.0711 22 16.714 22 12 22C7.28595 22 4.92893 22 3.46447 20.5355C2 19.0711 2 16.714 2 12C2 7.28595 2 4.92893 3.46447 3.46447C4.92893 2 7.28595 2 12 2" stroke="currentColor" stroke-width="1.5" stroke-linecap="round"/>
			</g>
		</symbol>
		<symbol id="bold-users-group-rounded" fill="none" viewBox="0 0 24 24">
			<g id="bold-users-group-rounded">
				<path d="M15.5 7.5C15.5 9.433 13.933 11 12 11C10.067 11 8.5 9.433 8.5 7.5C8.5 5.567 10.067 4 12 4C13.933 4 15.5 5.567 15.5 7.5Z" fill="currentColor"/>
				<path d="M18 16.5C18 18.433 15.3137 20 12 20C8.68629 20 6 18.433 6 16.5C6 14.567 8.68629 13 12 13C15.3137 13 18 14.567 18 16.5Z" fill="currentColor"/>
				<path d="M7.12205 5C7.29951 5 7.47276 5.01741 7.64005 5.05056C7.23249 5.77446 7 6.61008 7 7.5C7 8.36825 7.22131 9.18482 7.61059 9.89636C7.45245 9.92583 7.28912 9.94126 7.12205 9.94126C5.70763 9.94126 4.56102 8.83512 4.56102 7.47063C4.56102 6.10614 5.70763 5 7.12205 5Z" fill="currentColor"/>
				<path d="M5.44734 18.986C4.87942 18.3071 4.5 17.474 4.5 16.5C4.5 15.5558 4.85657 14.744 5.39578 14.0767C3.4911 14.2245 2 15.2662 2 16.5294C2 17.8044 3.5173 18.8538 5.44734 18.986Z" fill="currentColor"/>
				<path d="M16.9999 7.5C16.9999 8.36825 16.7786 9.18482 16.3893 9.89636C16.5475 9.92583 16.7108 9.94126 16.8779 9.94126C18.2923 9.94126 19.4389 8.83512 19.4389 7.47063C19.4389 6.10614 18.2923 5 16.8779 5C16.7004 5 16.5272 5.01741 16.3599 5.05056C16.7674 5.77446 16.9999 6.61008 16.9999 7.5Z" fill="currentColor"/>
				<path d="M18.5526 18.986C20.4826 18.8538 21.9999 17.8044 21.9999 16.5294C21.9999 15.2662 20.5088 14.2245 18.6041 14.0767C19.1433 14.744 19.4999 15.5558 19.4999 16.5C19.4999 17.474 19.1205 18.3071 18.5526 18.986Z" fill="currentColor"/>
			</g>
		</symbol>
		<symbol id="loading" fill="none" viewBox="0 0 24 24">
			<g id="loading">
				<path d="M22 12C22 13.9778 21.4135 15.9112 20.3147 17.5557C19.2159 19.2002 17.6541 20.4819 15.8268 21.2388C13.9996 21.9957 11.9889 22.1937 10.0491 21.8079C8.10929 21.422 6.32746 20.4696 4.92893 19.0711C3.53041 17.6725 2.578 15.8907 2.19215 13.9509C1.80629 12.0111 2.00433 10.0004 2.7612 8.17317C3.51808 6.3459 4.79981 4.78412 6.4443 3.6853C8.08879 2.58649 10.0222 2 12 2" stroke="currentColor" stroke-width="1.5" stroke-linecap="round"/>
			</g>
		</symbol>
		<symbol id="home-smile" fill="none" viewBox="0 0 24 24">
			<g id="home-smile">
				<path d="M2 12.2039C2 9.91549 2 8.77128 2.5192 7.82274C3.0384 6.87421 3.98695 6.28551 5.88403 5.10813L7.88403 3.86687C9.88939 2.62229 10.8921 2 12 2C13.1079 2 14.1106 2.62229 16.116 3.86687L18.116 5.10812C20.0131 6.28551 20.9616 6.87421 21.4808 7.82274C22 8.77128 22 9.91549 22 12.2039V13.725C22 17.6258 22 19.5763 20.8284 20.7881C19.6569 22 17.7712 22 14 22H10C6.22876 22 4.34315 22 3.17157 20.7881C2 19.5763 2 17.6258 2 13.725V12.2039Z" stroke="currentColor" stroke-width="1.5"/>
				<path d="M9 16C9.85038 16.6303 10.8846 17 12 17C13.1154 17 14.1496 16.6303 15 16" stroke="currentColor" stroke-width="1.5" stroke-linecap="round"/>
			</g>
		</symbol>
		<symbol id="bold-close-circle" fill="none" viewBox="0 0 24 24">
			<g id="bold-close-circle">
				<path fill-rule="evenodd" clip-rule="evenodd" d="M22 12C22 17.5228 17.5228 22 12 22C6.47715 22 2 17.5228 2 12C2 6.47715 6.47715 2 12 2C17.5228 2 22 6.47715 22 12ZM8.96963 8.96965C9.26252 8.67676 9.73739 8.67676 10.0303 8.96965L12 10.9393L13.9696 8.96967C14.2625 8.67678 14.7374 8.67678 15.0303 8.96967C15.3232 9.26256 15.3232 9.73744 15.0303 10.0303L13.0606 12L15.0303 13.9696C15.3232 14.2625 15.3232 14.7374 15.0303 15.0303C14.7374 15.3232 14.2625 15.3232 13.9696 15.0303L12 13.0607L10.0303 15.0303C9.73742 15.3232 9.26254 15.3232 8.96965 15.0303C8.67676 14.7374 8.67676 14.2625 8.96965 13.9697L10.9393 12L8.96963 10.0303C8.67673 9.73742 8.67673 9.26254 8.96963 8.96965Z" fill="currentColor"/>
			</g>
		</symbol>
		<symbol id="check-circle" fill="none" viewBox="0 0 24 24">
			<g id="check-circle">
				<circle cx="12" cy="12" r="10" stroke="currentColor" stroke-width="1.5"/>
				<path d="M8.5 12.5L10.5 14.5L15.5 9.5" stroke="currentColor" stroke-width="1.5" stroke-linecap="round" stroke-linejoin="round"/>
			</g>
		</symbol>
		<symbol id="danger-circle" fill="none" viewBox="0 0 24 24">
			<g id="danger-circle">
				<circle cx="12" cy="12" r="10" stroke="currentColor" stroke-width="1.5"/>
				<path d="M12 7V13" stroke="currentColor" stroke-width="1.5" stroke-linecap="round"/>
				<circle cx="12" cy="16" r="1" fill="currentColor"/>
			</g>
		</symbol>
		<symbol id="close-circle" fill="none" viewBox="0 0 24 24">
			<g id="close-circle">
				<circle cx="12" cy="12" r="10" stroke="currentColor" stroke-width="1.5"/>
				<path d="M14.5 9.50002L9.5 14.5M9.49998 9.5L14.5 14.5" stroke="currentColor" stroke-width="1.5" stroke-linecap="round"/>
			</g>
		</symbol>
		<symbol id="trash" fill="none" viewBox="0 0 24 24">
			<g id="trash">
				<path d="M20.5001 6H3.5" stroke="currentColor" stroke-width="1.5" stroke-linecap="round"/>
				<path d="M18.8334 8.5L18.3735 15.3991C18.1965 18.054 18.108 19.3815 17.243 20.1907C16.378 21 15.0476 21 12.3868 21H11.6134C8.9526 21 7.6222 21 6.75719 20.1907C5.89218 19.3815 5.80368 18.054 5.62669 15.3991L5.16675 8.5" stroke="currentColor" stroke-width="1.5" stroke-linecap="round"/>
				<path d="M6.5 6C6.55588 6 6.58382 6 6.60915 5.99936C7.43259 5.97849 8.15902 5.45491 8.43922 4.68032C8.44784 4.65649 8.45667 4.62999 8.47434 4.57697L8.57143 4.28571C8.65431 4.03708 8.69575 3.91276 8.75071 3.8072C8.97001 3.38607 9.37574 3.09364 9.84461 3.01877C9.96213 3 10.0932 3 10.3553 3H13.6447C13.9068 3 14.0379 3 14.1554 3.01877C14.6243 3.09364 15.03 3.38607 15.2493 3.8072C15.3043 3.91276 15.3457 4.03708 15.4286 4.28571L15.5257 4.57697C15.5433 4.62992 15.5522 4.65651 15.5608 4.68032C15.841 5.45491 16.5674 5.97849 17.3909 5.99936C17.4162 6 17.4441 6 17.5 6" stroke="currentColor" stroke-width="1.5"/>
			</g>
		</symbol>
		<symbol id="plus-circle" fill="none" viewBox="0 0 24 24">
			<g id="plus-circle">
				<circle cx="12" cy="12" r="10" stroke="#232326" stroke-width="1.5"/>
				<path d="M15 12L12 12M12 12L9 12M12 12L12 9M12 12L12 15" stroke="#232326" stroke-width="1.5" stroke-linecap="round"/>
			</g>
		</symbol>
		<symbol id="share" fill="none" viewBox="0 0 24 24">
			<g id="share">
				<path d="M13 11L22 2M22 2H16.6562M22 2V7.34375" stroke="currentColor" stroke-width="1.5" stroke-linecap="round" stroke-linejoin="round"/>
				<path d="M22 12C22 16.714 22 19.0711 20.5355 20.5355C19.0711 22 16.714 22 12 22C7.28595 22 4.92893 22 3.46447 20.5355C2 19.0711 2 16.714 2 12C2 7.28595 2 4.92893 3.46447 3.46447C4.92893 2 7.28595 2 12 2" stroke="currentColor" stroke-width="1.5" stroke-linecap="round"/>
			</g>
		</symbol>
		<symbol id="link" fill="none" viewBox="0 0 24 24">
			<g id="link">
				<path d="M10.0464 14C8.54044 12.4882 8.67609 9.90087 10.3494 8.22108L15.197 3.35462C16.8703 1.67483 19.4476 1.53865 20.9536 3.05046C22.4596 4.56228 22.3239 7.14956 20.6506 8.82935L18.2268 11.2626" stroke="currentColor" stroke-width="1.5" stroke-linecap="round"/>
				<path d="M13.9536 10C15.4596 11.5118 15.3239 14.0991 13.6506 15.7789L11.2268 18.2121L8.80299 20.6454C7.12969 22.3252 4.55237 22.4613 3.0464 20.9495C1.54043 19.4377 1.67609 16.8504 3.34939 15.1706L5.77323 12.7373" stroke="currentColor" stroke-width="1.5" stroke-linecap="round"/>
			</g>
		</symbol>
	</defs>
</svg>