<svg width="1510" height="600" viewBox="0 0 1510 600" fill="none" xmlns="http://www.w3.org/2000/svg">
<path d="M714.91 167H761.08L857.79 433H815.99L797.56 382.46H678.43L660.19 433H618.2L714.91 167ZM693.06 342.94H782.93L737.9 219.44L693.06 342.94ZM888.905 433V243H928.425V263.14C935.012 255.287 943.119 249.08 952.745 244.52C962.372 239.96 972.759 237.68 983.905 237.68C990.999 237.68 998.029 238.63 1005 240.53L989.225 280.43C984.285 278.53 979.345 277.58 974.405 277.58C966.045 277.58 958.382 279.67 951.415 283.85C944.449 287.903 938.875 293.413 934.695 300.38C930.515 307.347 928.425 315.073 928.425 323.56V433H888.905ZM1106.59 438.32C1088.22 438.32 1071.44 433.823 1056.24 424.83C1041.16 415.837 1029.13 403.74 1020.14 388.54C1011.14 373.34 1006.65 356.493 1006.65 338C1006.65 324.193 1009.24 311.273 1014.44 299.24C1019.63 287.207 1026.79 276.63 1035.91 267.51C1045.15 258.263 1055.79 251.043 1067.83 245.85C1079.86 240.657 1092.78 238.06 1106.59 238.06C1120.01 238.06 1131.67 241.1 1141.55 247.18C1151.43 253.26 1159.53 261.177 1165.87 270.93V243H1205.39V528H1165.87V405.45C1159.53 415.077 1151.43 422.993 1141.55 429.2C1131.67 435.28 1120.01 438.32 1106.59 438.32ZM1106.97 276.25C1095.95 276.25 1085.88 279.037 1076.76 284.61C1067.64 290.183 1060.42 297.657 1055.1 307.03C1049.78 316.403 1047.12 326.727 1047.12 338C1047.12 349.527 1049.84 359.977 1055.29 369.35C1060.73 378.723 1067.95 386.197 1076.95 391.77C1086.07 397.217 1096.07 399.94 1106.97 399.94C1118.11 399.94 1127.87 397.153 1136.23 391.58C1144.59 386.007 1151.05 378.533 1155.61 369.16C1160.17 359.787 1162.45 349.4 1162.45 338C1162.45 326.6 1160.1 316.277 1155.42 307.03C1150.86 297.657 1144.4 290.183 1136.04 284.61C1127.8 279.037 1118.11 276.25 1106.97 276.25ZM1238.67 361.75V243H1278.19V352.06C1278.19 360.547 1280.28 368.273 1284.46 375.24C1288.64 382.207 1294.21 387.78 1301.18 391.96C1308.15 396.013 1315.81 398.04 1324.17 398.04C1332.66 398.04 1340.32 396.013 1347.16 391.96C1354.13 387.78 1359.64 382.207 1363.69 375.24C1367.87 368.273 1369.96 360.547 1369.96 352.06V243H1409.48L1409.67 433H1370.15L1369.96 412.48C1363.5 420.333 1355.46 426.54 1345.83 431.1C1336.2 435.66 1325.88 437.94 1314.86 437.94C1300.8 437.94 1288.01 434.52 1276.48 427.68C1264.95 420.84 1255.77 411.657 1248.93 400.13C1242.09 388.603 1238.67 375.81 1238.67 361.75ZM1447.77 243H1487.29V433H1447.77V243ZM1467.91 215.45C1461.83 215.45 1456.77 213.487 1452.71 209.56C1448.66 205.633 1446.63 200.693 1446.63 194.74C1446.63 188.913 1448.66 184.037 1452.71 180.11C1456.77 176.057 1461.77 174.03 1467.72 174.03C1473.55 174.03 1478.49 176.057 1482.54 180.11C1486.6 184.037 1488.62 188.913 1488.62 194.74C1488.62 200.693 1486.6 205.633 1482.54 209.56C1478.62 213.487 1473.74 215.45 1467.91 215.45Z" fill="#404040"/>
<rect width="123.369" height="342.928" rx="30" transform="matrix(0.865727 0.500516 -0.499484 0.866323 443.196 100)" fill="#555EF5"/>
<rect width="123.369" height="342.928" rx="30" transform="matrix(0.865727 0.500516 -0.499484 0.866323 221.287 141.166)" fill="#555EF5"/>
</svg>
