<?xml version="1.0" standalone="no"?>
<!DOCTYPE svg PUBLIC "-//W3C//DTD SVG 20010904//EN"
 "http://www.w3.org/TR/2001/REC-SVG-20010904/DTD/svg10.dtd">
<svg version="1.0" xmlns="http://www.w3.org/2000/svg"
 width="600.000000pt" height="600.000000pt" viewBox="0 0 600.000000 600.000000"
 preserveAspectRatio="xMidYMid meet">
<metadata>
Created by potrace 1.14, written by Peter Selinger 2001-2017
</metadata>
<g transform="translate(0.000000,600.000000) scale(0.100000,-0.100000)"
fill="#000000" stroke="none">
<path d="M4764 5240 c-41 -9 -90 -43 -137 -94 -35 -38 -144 -206 -198 -306
-13 -23 -29 -50 -34 -59 -6 -9 -34 -59 -64 -111 -76 -133 -62 -109 -343 -595
-140 -242 -257 -447 -261 -455 -4 -8 -13 -24 -20 -35 -22 -36 -63 -106 -171
-295 -58 -102 -111 -192 -116 -200 -6 -8 -13 -22 -17 -30 -4 -8 -33 -59 -65
-113 -32 -53 -58 -100 -58 -104 0 -3 -6 -14 -14 -22 -8 -9 -26 -41 -42 -71
-15 -30 -33 -62 -39 -70 -7 -8 -26 -40 -42 -70 -17 -30 -63 -111 -103 -180
-193 -332 -228 -407 -235 -498 -7 -92 38 -168 147 -248 63 -46 574 -345 703
-411 146 -75 230 -86 318 -44 71 35 132 111 254 321 105 180 355 613 381 660
14 25 55 97 92 160 37 63 85 147 107 185 22 39 101 176 175 305 75 129 145
251 156 270 36 64 244 423 313 543 38 65 69 122 69 127 0 6 5 10 10 10 6 0 10
4 10 9 0 4 31 62 69 127 38 66 80 139 95 164 75 130 147 272 165 325 35 106
12 207 -62 275 -40 37 -157 119 -217 152 -25 14 -68 39 -96 55 -27 17 -70 41
-95 55 -24 14 -96 56 -159 93 -272 160 -378 199 -476 175z"/>
<path d="M2120 4751 c-59 -18 -127 -75 -177 -146 -26 -38 -153 -245 -153 -250
0 -3 -46 -84 -103 -182 -57 -98 -175 -302 -262 -453 -87 -151 -231 -401 -320
-555 -89 -154 -221 -383 -293 -508 -73 -125 -132 -232 -132 -237 0 -6 -4 -10
-9 -10 -5 0 -11 -8 -14 -17 -3 -10 -19 -40 -35 -68 -111 -189 -179 -308 -205
-355 -16 -30 -36 -62 -43 -71 -8 -8 -14 -18 -14 -22 0 -3 -13 -28 -29 -55
-124 -210 -171 -326 -166 -407 7 -122 94 -205 378 -366 43 -24 86 -48 95 -54
28 -16 244 -141 287 -165 301 -170 412 -156 562 69 50 75 193 321 193 332 0 5
4 9 9 9 5 0 11 8 14 18 4 9 17 35 30 57 13 22 35 60 49 85 14 25 58 101 98
170 40 69 83 144 96 167 50 87 195 339 204 353 5 8 34 58 63 110 30 52 85 147
122 210 37 63 79 138 95 165 16 28 58 101 94 164 36 62 66 117 66 122 0 5 4 9
9 9 5 0 11 6 13 13 2 11 110 201 230 407 318 546 364 636 373 735 11 132 -69
217 -362 386 -23 13 -99 57 -170 98 -237 138 -333 190 -397 215 -68 27 -155
39 -196 27z"/>
</g>
</svg>
